<?xml version="1.0" encoding="UTF-8"?><svg id="a" xmlns="http://www.w3.org/2000/svg" viewBox="0 0 160 50"><defs><style>.b{fill:#fff;}</style></defs><g><path class="b" d="M10.44,15.52H28.29v5.35h-11.17v5.78h8.36v5.2h-8.36v11.09h-6.68V15.52Z"/><path class="b" d="M53.33,42.94h-6.68v-2.97c-1.33,1.87-3.67,3.2-6.6,3.2-5.04,0-8.44-3.48-8.44-9.3v-12.73h6.64v11.84c0,2.97,1.68,4.61,4.18,4.61s4.22-1.64,4.22-4.61v-11.84h6.68v21.8Z"/><path class="b" d="M67,43.26c-5.82,0-9.73-3.24-10.04-7.46h6.6c.16,1.52,1.52,2.54,3.36,2.54,1.72,0,2.62-.78,2.62-1.76,0-3.52-11.87-.98-11.87-8.98,0-3.71,3.16-6.76,8.87-6.76s8.75,3.12,9.18,7.42h-6.17c-.2-1.48-1.33-2.46-3.2-2.46-1.56,0-2.42,.62-2.42,1.68,0,3.48,11.8,1.02,11.91,9.14,0,3.79-3.36,6.64-8.83,6.64Z"/><path class="b" d="M79.31,15.29c0-2.03,1.6-3.63,3.98-3.63s3.95,1.6,3.95,3.63-1.6,3.59-3.95,3.59-3.98-1.6-3.98-3.59Zm.62,5.86h6.68v21.8h-6.68V21.15Z"/><path class="b" d="M101.38,43.26c-6.41,0-11.25-4.3-11.25-11.21s4.96-11.21,11.33-11.21,11.33,4.3,11.33,11.21-5,11.21-11.41,11.21Zm0-5.78c2.38,0,4.61-1.76,4.61-5.43s-2.19-5.43-4.53-5.43-4.53,1.72-4.53,5.43,2.03,5.43,4.45,5.43Z"/><path class="b" d="M131.38,31.11c0-2.97-1.64-4.61-4.18-4.61s-4.18,1.64-4.18,4.61v11.84h-6.68V21.15h6.68v2.89c1.33-1.84,3.67-3.12,6.6-3.12,5.04,0,8.4,3.44,8.4,9.3v12.73h-6.64v-11.84Z"/></g><path class="b" d="M143.99,10.17h-2.79V5.7h7.8V26.26h-5.01V10.17Z"/></svg>